<svg width="44" height="44" viewBox="0 0 44 44" fill="none" xmlns="http://www.w3.org/2000/svg">
<g clip-path="url(#clip0_39_18)">
<path d="M37.0845 4.20276C37.8379 3.45957 38.8617 3.03806 39.9322 3.03035C41.0027 3.02264 42.0328 3.42937 42.7974 4.16164C43.5619 4.89391 43.9988 5.89217 44.0125 6.93827C44.0262 7.98437 43.6156 8.99324 42.8705 9.74439L21.3105 36.0846C20.9401 36.4743 20.4931 36.7871 19.9963 37.0042C19.4995 37.2214 18.963 37.3385 18.4188 37.3485C17.8747 37.3586 17.334 37.2613 16.8292 37.0626C16.3243 36.8639 15.8656 36.5679 15.4805 36.1921L1.18596 22.2278C0.426344 21.4851 -0.000257746 20.4779 1.16832e-07 19.4278C0.000257979 18.3778 0.427354 17.3708 1.18733 16.6284C1.94731 15.8861 2.97792 15.4692 4.05243 15.4694C5.12694 15.4697 6.15734 15.8871 6.91696 16.6298L18.2222 27.6808L36.9772 4.32639C37.0113 4.28389 37.048 4.2435 37.0872 4.20545L37.0845 4.20276Z" fill="#38CB89"/>
</g>
<defs>
<clipPath id="clip0_39_18">
<rect width="44" height="43" fill="white" transform="translate(0 0.356415)"/>
</clipPath>
</defs>
</svg>
